<mxfile host="app.diagrams.net" modified="2023-10-18T14:14:21.280Z" agent="Mozilla/5.0 (Windows NT 10.0; Win64; x64) AppleWebKit/537.36 (KHTML, like Gecko) Chrome/118.0.0.0 Safari/537.36" etag="rH6x3AGu3pjRNyeiMni5" version="22.0.4" type="google">
  <diagram id="C5RBs43oDa-KdzZeNtuy" name="Page-1">
    <mxGraphModel grid="1" page="1" gridSize="10" guides="1" tooltips="1" connect="1" arrows="1" fold="1" pageScale="1" pageWidth="3300" pageHeight="4681" math="0" shadow="0">
      <root>
        <mxCell id="WIyWlLk6GJQsqaUBKTNV-0" />
        <mxCell id="WIyWlLk6GJQsqaUBKTNV-1" parent="WIyWlLk6GJQsqaUBKTNV-0" />
        <mxCell id="w5h2cY6r9PjAPWTdhulY-8" value="Conta Streaming" style="swimlane;fontStyle=2;align=center;verticalAlign=top;childLayout=stackLayout;horizontal=1;startSize=26;horizontalStack=0;resizeParent=1;resizeLast=0;collapsible=1;marginBottom=0;rounded=0;shadow=0;strokeWidth=1;" vertex="1" parent="WIyWlLk6GJQsqaUBKTNV-1">
          <mxGeometry x="450" y="150" width="210" height="320" as="geometry">
            <mxRectangle x="230" y="140" width="160" height="26" as="alternateBounds" />
          </mxGeometry>
        </mxCell>
        <mxCell id="w5h2cY6r9PjAPWTdhulY-11" value="ID: int" style="text;align=left;verticalAlign=top;spacingLeft=4;spacingRight=4;overflow=hidden;rotatable=0;points=[[0,0.5],[1,0.5]];portConstraint=eastwest;rounded=0;shadow=0;html=0;" vertex="1" parent="w5h2cY6r9PjAPWTdhulY-8">
          <mxGeometry y="26" width="210" height="26" as="geometry" />
        </mxCell>
        <mxCell id="w5h2cY6r9PjAPWTdhulY-9" value="Usuario: string" style="text;align=left;verticalAlign=top;spacingLeft=4;spacingRight=4;overflow=hidden;rotatable=0;points=[[0,0.5],[1,0.5]];portConstraint=eastwest;" vertex="1" parent="w5h2cY6r9PjAPWTdhulY-8">
          <mxGeometry y="52" width="210" height="26" as="geometry" />
        </mxCell>
        <mxCell id="w5h2cY6r9PjAPWTdhulY-10" value="Senha: string" style="text;align=left;verticalAlign=top;spacingLeft=4;spacingRight=4;overflow=hidden;rotatable=0;points=[[0,0.5],[1,0.5]];portConstraint=eastwest;rounded=0;shadow=0;html=0;" vertex="1" parent="w5h2cY6r9PjAPWTdhulY-8">
          <mxGeometry y="78" width="210" height="26" as="geometry" />
        </mxCell>
        <mxCell id="w5h2cY6r9PjAPWTdhulY-17" value="Plano ativo: boolean" style="text;align=left;verticalAlign=top;spacingLeft=4;spacingRight=4;overflow=hidden;rotatable=0;points=[[0,0.5],[1,0.5]];portConstraint=eastwest;rounded=0;shadow=0;html=0;" vertex="1" parent="w5h2cY6r9PjAPWTdhulY-8">
          <mxGeometry y="104" width="210" height="26" as="geometry" />
        </mxCell>
        <mxCell id="w5h2cY6r9PjAPWTdhulY-12" value="Estilo musical: string" style="text;align=left;verticalAlign=top;spacingLeft=4;spacingRight=4;overflow=hidden;rotatable=0;points=[[0,0.5],[1,0.5]];portConstraint=eastwest;rounded=0;shadow=0;html=0;" vertex="1" parent="w5h2cY6r9PjAPWTdhulY-8">
          <mxGeometry y="130" width="210" height="26" as="geometry" />
        </mxCell>
        <mxCell id="w5h2cY6r9PjAPWTdhulY-13" value="Lista de playlist: List&lt;Playlist&gt;" style="text;align=left;verticalAlign=top;spacingLeft=4;spacingRight=4;overflow=hidden;rotatable=0;points=[[0,0.5],[1,0.5]];portConstraint=eastwest;rounded=0;shadow=0;html=0;" vertex="1" parent="w5h2cY6r9PjAPWTdhulY-8">
          <mxGeometry y="156" width="210" height="26" as="geometry" />
        </mxCell>
        <mxCell id="B2ZCBsSuVV-6TdfTjAt4-57" value="Verificação do cartão: boolean" style="text;align=left;verticalAlign=top;spacingLeft=4;spacingRight=4;overflow=hidden;rotatable=0;points=[[0,0.5],[1,0.5]];portConstraint=eastwest;rounded=0;shadow=0;html=0;" vertex="1" parent="w5h2cY6r9PjAPWTdhulY-8">
          <mxGeometry y="182" width="210" height="26" as="geometry" />
        </mxCell>
        <mxCell id="w5h2cY6r9PjAPWTdhulY-42" value="" style="line;strokeWidth=1;fillColor=none;align=left;verticalAlign=middle;spacingTop=-1;spacingLeft=3;spacingRight=3;rotatable=0;labelPosition=right;points=[];portConstraint=eastwest;strokeColor=inherit;" vertex="1" parent="w5h2cY6r9PjAPWTdhulY-8">
          <mxGeometry y="208" width="210" height="8" as="geometry" />
        </mxCell>
        <mxCell id="w5h2cY6r9PjAPWTdhulY-43" value="Favoritar música: método" style="text;align=left;verticalAlign=top;spacingLeft=4;spacingRight=4;overflow=hidden;rotatable=0;points=[[0,0.5],[1,0.5]];portConstraint=eastwest;rounded=0;shadow=0;html=0;" vertex="1" parent="w5h2cY6r9PjAPWTdhulY-8">
          <mxGeometry y="216" width="210" height="26" as="geometry" />
        </mxCell>
        <mxCell id="w5h2cY6r9PjAPWTdhulY-44" value="Favoritar banda: método" style="text;align=left;verticalAlign=top;spacingLeft=4;spacingRight=4;overflow=hidden;rotatable=0;points=[[0,0.5],[1,0.5]];portConstraint=eastwest;rounded=0;shadow=0;html=0;" vertex="1" parent="w5h2cY6r9PjAPWTdhulY-8">
          <mxGeometry y="242" width="210" height="26" as="geometry" />
        </mxCell>
        <mxCell id="w5h2cY6r9PjAPWTdhulY-45" value="Buscar banda: método" style="text;align=left;verticalAlign=top;spacingLeft=4;spacingRight=4;overflow=hidden;rotatable=0;points=[[0,0.5],[1,0.5]];portConstraint=eastwest;rounded=0;shadow=0;html=0;" vertex="1" parent="w5h2cY6r9PjAPWTdhulY-8">
          <mxGeometry y="268" width="210" height="26" as="geometry" />
        </mxCell>
        <mxCell id="w5h2cY6r9PjAPWTdhulY-46" value="Buscar banda: método" style="text;align=left;verticalAlign=top;spacingLeft=4;spacingRight=4;overflow=hidden;rotatable=0;points=[[0,0.5],[1,0.5]];portConstraint=eastwest;rounded=0;shadow=0;html=0;" vertex="1" parent="w5h2cY6r9PjAPWTdhulY-8">
          <mxGeometry y="294" width="210" height="26" as="geometry" />
        </mxCell>
        <mxCell id="w5h2cY6r9PjAPWTdhulY-18" value="Banda" style="swimlane;fontStyle=2;align=center;verticalAlign=top;childLayout=stackLayout;horizontal=1;startSize=26;horizontalStack=0;resizeParent=1;resizeLast=0;collapsible=1;marginBottom=0;rounded=0;shadow=0;strokeWidth=1;" vertex="1" parent="WIyWlLk6GJQsqaUBKTNV-1">
          <mxGeometry x="1490" y="470" width="210" height="130" as="geometry">
            <mxRectangle x="230" y="140" width="160" height="26" as="alternateBounds" />
          </mxGeometry>
        </mxCell>
        <mxCell id="w5h2cY6r9PjAPWTdhulY-19" value="Nome da banda: string" style="text;align=left;verticalAlign=top;spacingLeft=4;spacingRight=4;overflow=hidden;rotatable=0;points=[[0,0.5],[1,0.5]];portConstraint=eastwest;rounded=0;shadow=0;html=0;" vertex="1" parent="w5h2cY6r9PjAPWTdhulY-18">
          <mxGeometry y="26" width="210" height="26" as="geometry" />
        </mxCell>
        <mxCell id="w5h2cY6r9PjAPWTdhulY-20" value="Estilo musical: string" style="text;align=left;verticalAlign=top;spacingLeft=4;spacingRight=4;overflow=hidden;rotatable=0;points=[[0,0.5],[1,0.5]];portConstraint=eastwest;" vertex="1" parent="w5h2cY6r9PjAPWTdhulY-18">
          <mxGeometry y="52" width="210" height="26" as="geometry" />
        </mxCell>
        <mxCell id="B2ZCBsSuVV-6TdfTjAt4-8" value="Nome dos integrantes: List&lt;string&gt;" style="text;align=left;verticalAlign=top;spacingLeft=4;spacingRight=4;overflow=hidden;rotatable=0;points=[[0,0.5],[1,0.5]];portConstraint=eastwest;" vertex="1" parent="w5h2cY6r9PjAPWTdhulY-18">
          <mxGeometry y="78" width="210" height="26" as="geometry" />
        </mxCell>
        <mxCell id="9Lx-nx_K1vhfd0tG3RwR-0" value="Lista de album: List&lt;Album&gt;" style="text;align=left;verticalAlign=top;spacingLeft=4;spacingRight=4;overflow=hidden;rotatable=0;points=[[0,0.5],[1,0.5]];portConstraint=eastwest;" vertex="1" parent="w5h2cY6r9PjAPWTdhulY-18">
          <mxGeometry y="104" width="210" height="26" as="geometry" />
        </mxCell>
        <mxCell id="w5h2cY6r9PjAPWTdhulY-32" value="Música" style="swimlane;fontStyle=2;align=center;verticalAlign=top;childLayout=stackLayout;horizontal=1;startSize=26;horizontalStack=0;resizeParent=1;resizeLast=0;collapsible=1;marginBottom=0;rounded=0;shadow=0;strokeWidth=1;" vertex="1" parent="WIyWlLk6GJQsqaUBKTNV-1">
          <mxGeometry x="1190" y="233" width="160" height="106" as="geometry">
            <mxRectangle x="230" y="140" width="160" height="26" as="alternateBounds" />
          </mxGeometry>
        </mxCell>
        <mxCell id="w5h2cY6r9PjAPWTdhulY-33" value="Compositor: string" style="text;align=left;verticalAlign=top;spacingLeft=4;spacingRight=4;overflow=hidden;rotatable=0;points=[[0,0.5],[1,0.5]];portConstraint=eastwest;rounded=0;shadow=0;html=0;" vertex="1" parent="w5h2cY6r9PjAPWTdhulY-32">
          <mxGeometry y="26" width="160" height="26" as="geometry" />
        </mxCell>
        <mxCell id="w5h2cY6r9PjAPWTdhulY-35" value="Nome da música: string" style="text;align=left;verticalAlign=top;spacingLeft=4;spacingRight=4;overflow=hidden;rotatable=0;points=[[0,0.5],[1,0.5]];portConstraint=eastwest;rounded=0;shadow=0;html=0;" vertex="1" parent="w5h2cY6r9PjAPWTdhulY-32">
          <mxGeometry y="52" width="160" height="26" as="geometry" />
        </mxCell>
        <mxCell id="w5h2cY6r9PjAPWTdhulY-36" value="" style="endArrow=classic;html=1;rounded=0;exitX=1.027;exitY=0.846;exitDx=0;exitDy=0;entryX=0;entryY=0.5;entryDx=0;entryDy=0;exitPerimeter=0;" edge="1" parent="WIyWlLk6GJQsqaUBKTNV-1" source="w5h2cY6r9PjAPWTdhulY-12" target="B2ZCBsSuVV-6TdfTjAt4-21">
          <mxGeometry width="50" height="50" relative="1" as="geometry">
            <mxPoint x="670" y="158.32999999999998" as="sourcePoint" />
            <mxPoint x="860" y="158.32999999999998" as="targetPoint" />
          </mxGeometry>
        </mxCell>
        <mxCell id="w5h2cY6r9PjAPWTdhulY-37" value="1" style="edgeLabel;html=1;align=center;verticalAlign=middle;resizable=0;points=[];" connectable="0" vertex="1" parent="w5h2cY6r9PjAPWTdhulY-36">
          <mxGeometry x="0.2434" y="-1" relative="1" as="geometry">
            <mxPoint x="-105" y="10" as="offset" />
          </mxGeometry>
        </mxCell>
        <mxCell id="w5h2cY6r9PjAPWTdhulY-38" value="N" style="edgeLabel;html=1;align=center;verticalAlign=middle;resizable=0;points=[];" connectable="0" vertex="1" parent="w5h2cY6r9PjAPWTdhulY-36">
          <mxGeometry x="0.5053" y="2" relative="1" as="geometry">
            <mxPoint x="37" y="16" as="offset" />
          </mxGeometry>
        </mxCell>
        <mxCell id="w5h2cY6r9PjAPWTdhulY-48" value="Assinatura" style="swimlane;fontStyle=2;align=center;verticalAlign=top;childLayout=stackLayout;horizontal=1;startSize=26;horizontalStack=0;resizeParent=1;resizeLast=0;collapsible=1;marginBottom=0;rounded=0;shadow=0;strokeWidth=1;" vertex="1" parent="WIyWlLk6GJQsqaUBKTNV-1">
          <mxGeometry x="250" y="620" width="210" height="130" as="geometry">
            <mxRectangle x="230" y="140" width="160" height="26" as="alternateBounds" />
          </mxGeometry>
        </mxCell>
        <mxCell id="w5h2cY6r9PjAPWTdhulY-49" value="Nome da assinatura: string" style="text;align=left;verticalAlign=top;spacingLeft=4;spacingRight=4;overflow=hidden;rotatable=0;points=[[0,0.5],[1,0.5]];portConstraint=eastwest;rounded=0;shadow=0;html=0;" vertex="1" parent="w5h2cY6r9PjAPWTdhulY-48">
          <mxGeometry y="26" width="210" height="26" as="geometry" />
        </mxCell>
        <mxCell id="w5h2cY6r9PjAPWTdhulY-50" value="Nível da assinatura: string" style="text;align=left;verticalAlign=top;spacingLeft=4;spacingRight=4;overflow=hidden;rotatable=0;points=[[0,0.5],[1,0.5]];portConstraint=eastwest;" vertex="1" parent="w5h2cY6r9PjAPWTdhulY-48">
          <mxGeometry y="52" width="210" height="26" as="geometry" />
        </mxCell>
        <mxCell id="w5h2cY6r9PjAPWTdhulY-51" value="Tempo de assinatura: string" style="text;align=left;verticalAlign=top;spacingLeft=4;spacingRight=4;overflow=hidden;rotatable=0;points=[[0,0.5],[1,0.5]];portConstraint=eastwest;rounded=0;shadow=0;html=0;" vertex="1" parent="w5h2cY6r9PjAPWTdhulY-48">
          <mxGeometry y="78" width="210" height="26" as="geometry" />
        </mxCell>
        <mxCell id="w5h2cY6r9PjAPWTdhulY-52" value="" style="endArrow=classic;html=1;rounded=0;entryX=0.5;entryY=0;entryDx=0;entryDy=0;" edge="1" parent="WIyWlLk6GJQsqaUBKTNV-1" source="w5h2cY6r9PjAPWTdhulY-46" target="w5h2cY6r9PjAPWTdhulY-48">
          <mxGeometry width="50" height="50" relative="1" as="geometry">
            <mxPoint x="578" y="416" as="sourcePoint" />
            <mxPoint x="680" y="360" as="targetPoint" />
          </mxGeometry>
        </mxCell>
        <mxCell id="w5h2cY6r9PjAPWTdhulY-53" value="1" style="edgeLabel;html=1;align=center;verticalAlign=middle;resizable=0;points=[];" connectable="0" vertex="1" parent="w5h2cY6r9PjAPWTdhulY-52">
          <mxGeometry x="-0.6727" y="-1" relative="1" as="geometry">
            <mxPoint x="13" y="-5" as="offset" />
          </mxGeometry>
        </mxCell>
        <mxCell id="w5h2cY6r9PjAPWTdhulY-54" value="1" style="edgeLabel;html=1;align=center;verticalAlign=middle;resizable=0;points=[];" connectable="0" vertex="1" parent="w5h2cY6r9PjAPWTdhulY-52">
          <mxGeometry x="0.2171" y="2" relative="1" as="geometry">
            <mxPoint x="9" y="24" as="offset" />
          </mxGeometry>
        </mxCell>
        <mxCell id="B2ZCBsSuVV-6TdfTjAt4-3" value="Album" style="swimlane;fontStyle=2;align=center;verticalAlign=top;childLayout=stackLayout;horizontal=1;startSize=26;horizontalStack=0;resizeParent=1;resizeLast=0;collapsible=1;marginBottom=0;rounded=0;shadow=0;strokeWidth=1;" vertex="1" parent="WIyWlLk6GJQsqaUBKTNV-1">
          <mxGeometry x="1500" y="234" width="180" height="104" as="geometry">
            <mxRectangle x="230" y="140" width="160" height="26" as="alternateBounds" />
          </mxGeometry>
        </mxCell>
        <mxCell id="B2ZCBsSuVV-6TdfTjAt4-4" value="Nome do Album: string" style="text;align=left;verticalAlign=top;spacingLeft=4;spacingRight=4;overflow=hidden;rotatable=0;points=[[0,0.5],[1,0.5]];portConstraint=eastwest;rounded=0;shadow=0;html=0;" vertex="1" parent="B2ZCBsSuVV-6TdfTjAt4-3">
          <mxGeometry y="26" width="180" height="26" as="geometry" />
        </mxCell>
        <mxCell id="B2ZCBsSuVV-6TdfTjAt4-5" value="Lista de música: List&lt;musica&gt;" style="text;align=left;verticalAlign=top;spacingLeft=4;spacingRight=4;overflow=hidden;rotatable=0;points=[[0,0.5],[1,0.5]];portConstraint=eastwest;" vertex="1" parent="B2ZCBsSuVV-6TdfTjAt4-3">
          <mxGeometry y="52" width="180" height="26" as="geometry" />
        </mxCell>
        <mxCell id="B2ZCBsSuVV-6TdfTjAt4-11" value="Plano" style="swimlane;fontStyle=2;align=center;verticalAlign=top;childLayout=stackLayout;horizontal=1;startSize=26;horizontalStack=0;resizeParent=1;resizeLast=0;collapsible=1;marginBottom=0;rounded=0;shadow=0;strokeWidth=1;" vertex="1" parent="WIyWlLk6GJQsqaUBKTNV-1">
          <mxGeometry x="650" y="620" width="210" height="156" as="geometry">
            <mxRectangle x="230" y="140" width="160" height="26" as="alternateBounds" />
          </mxGeometry>
        </mxCell>
        <mxCell id="B2ZCBsSuVV-6TdfTjAt4-12" value="Nome do plano: string" style="text;align=left;verticalAlign=top;spacingLeft=4;spacingRight=4;overflow=hidden;rotatable=0;points=[[0,0.5],[1,0.5]];portConstraint=eastwest;rounded=0;shadow=0;html=0;" vertex="1" parent="B2ZCBsSuVV-6TdfTjAt4-11">
          <mxGeometry y="26" width="210" height="26" as="geometry" />
        </mxCell>
        <mxCell id="B2ZCBsSuVV-6TdfTjAt4-13" value="Nível do plano: string" style="text;align=left;verticalAlign=top;spacingLeft=4;spacingRight=4;overflow=hidden;rotatable=0;points=[[0,0.5],[1,0.5]];portConstraint=eastwest;" vertex="1" parent="B2ZCBsSuVV-6TdfTjAt4-11">
          <mxGeometry y="52" width="210" height="26" as="geometry" />
        </mxCell>
        <mxCell id="B2ZCBsSuVV-6TdfTjAt4-15" value="Benefícios do plano: List&lt;string&gt;" style="text;align=left;verticalAlign=top;spacingLeft=4;spacingRight=4;overflow=hidden;rotatable=0;points=[[0,0.5],[1,0.5]];portConstraint=eastwest;" vertex="1" parent="B2ZCBsSuVV-6TdfTjAt4-11">
          <mxGeometry y="78" width="210" height="26" as="geometry" />
        </mxCell>
        <mxCell id="B2ZCBsSuVV-6TdfTjAt4-14" value="Tempo do plano: string" style="text;align=left;verticalAlign=top;spacingLeft=4;spacingRight=4;overflow=hidden;rotatable=0;points=[[0,0.5],[1,0.5]];portConstraint=eastwest;rounded=0;shadow=0;html=0;" vertex="1" parent="B2ZCBsSuVV-6TdfTjAt4-11">
          <mxGeometry y="104" width="210" height="26" as="geometry" />
        </mxCell>
        <mxCell id="B2ZCBsSuVV-6TdfTjAt4-55" value="Valor do plano: int" style="text;align=left;verticalAlign=top;spacingLeft=4;spacingRight=4;overflow=hidden;rotatable=0;points=[[0,0.5],[1,0.5]];portConstraint=eastwest;" vertex="1" parent="B2ZCBsSuVV-6TdfTjAt4-11">
          <mxGeometry y="130" width="210" height="26" as="geometry" />
        </mxCell>
        <mxCell id="B2ZCBsSuVV-6TdfTjAt4-16" value="" style="endArrow=classic;html=1;rounded=0;exitX=1;exitY=0.5;exitDx=0;exitDy=0;entryX=0;entryY=0.5;entryDx=0;entryDy=0;" edge="1" parent="WIyWlLk6GJQsqaUBKTNV-1" source="w5h2cY6r9PjAPWTdhulY-49" target="B2ZCBsSuVV-6TdfTjAt4-12">
          <mxGeometry width="50" height="50" relative="1" as="geometry">
            <mxPoint x="610" y="560" as="sourcePoint" />
            <mxPoint x="660" y="510" as="targetPoint" />
          </mxGeometry>
        </mxCell>
        <mxCell id="B2ZCBsSuVV-6TdfTjAt4-17" value="1" style="edgeLabel;html=1;align=center;verticalAlign=middle;resizable=0;points=[];" connectable="0" vertex="1" parent="B2ZCBsSuVV-6TdfTjAt4-16">
          <mxGeometry x="-0.6292" y="-2" relative="1" as="geometry">
            <mxPoint x="-9" y="11" as="offset" />
          </mxGeometry>
        </mxCell>
        <mxCell id="B2ZCBsSuVV-6TdfTjAt4-18" value="1" style="edgeLabel;html=1;align=center;verticalAlign=middle;resizable=0;points=[];" connectable="0" vertex="1" parent="B2ZCBsSuVV-6TdfTjAt4-16">
          <mxGeometry x="0.4042" y="-4" relative="1" as="geometry">
            <mxPoint x="28" y="7" as="offset" />
          </mxGeometry>
        </mxCell>
        <mxCell id="B2ZCBsSuVV-6TdfTjAt4-19" value="PlayList" style="swimlane;fontStyle=2;align=center;verticalAlign=top;childLayout=stackLayout;horizontal=1;startSize=26;horizontalStack=0;resizeParent=1;resizeLast=0;collapsible=1;marginBottom=0;rounded=0;shadow=0;strokeWidth=1;" vertex="1" parent="WIyWlLk6GJQsqaUBKTNV-1">
          <mxGeometry x="840" y="234" width="190" height="106" as="geometry">
            <mxRectangle x="230" y="140" width="160" height="26" as="alternateBounds" />
          </mxGeometry>
        </mxCell>
        <mxCell id="B2ZCBsSuVV-6TdfTjAt4-22" value="Nome da playlist: string" style="text;align=left;verticalAlign=top;spacingLeft=4;spacingRight=4;overflow=hidden;rotatable=0;points=[[0,0.5],[1,0.5]];portConstraint=eastwest;rounded=0;shadow=0;html=0;" vertex="1" parent="B2ZCBsSuVV-6TdfTjAt4-19">
          <mxGeometry y="26" width="190" height="26" as="geometry" />
        </mxCell>
        <mxCell id="B2ZCBsSuVV-6TdfTjAt4-21" value="Lista de música: List&lt;Musica&gt;" style="text;align=left;verticalAlign=top;spacingLeft=4;spacingRight=4;overflow=hidden;rotatable=0;points=[[0,0.5],[1,0.5]];portConstraint=eastwest;" vertex="1" parent="B2ZCBsSuVV-6TdfTjAt4-19">
          <mxGeometry y="52" width="190" height="28" as="geometry" />
        </mxCell>
        <mxCell id="B2ZCBsSuVV-6TdfTjAt4-46" value="" style="endArrow=classic;html=1;rounded=0;exitX=1;exitY=0.5;exitDx=0;exitDy=0;entryX=0.015;entryY=0.012;entryDx=0;entryDy=0;entryPerimeter=0;" edge="1" parent="WIyWlLk6GJQsqaUBKTNV-1">
          <mxGeometry width="50" height="50" relative="1" as="geometry">
            <mxPoint x="1030" y="285.33" as="sourcePoint" />
            <mxPoint x="1192.4" y="285.336" as="targetPoint" />
          </mxGeometry>
        </mxCell>
        <mxCell id="B2ZCBsSuVV-6TdfTjAt4-49" value="1" style="edgeLabel;html=1;align=center;verticalAlign=middle;resizable=0;points=[];" connectable="0" vertex="1" parent="B2ZCBsSuVV-6TdfTjAt4-46">
          <mxGeometry x="-0.3801" y="3" relative="1" as="geometry">
            <mxPoint x="-41" y="-9" as="offset" />
          </mxGeometry>
        </mxCell>
        <mxCell id="B2ZCBsSuVV-6TdfTjAt4-50" value="N" style="edgeLabel;html=1;align=center;verticalAlign=middle;resizable=0;points=[];" connectable="0" vertex="1" parent="B2ZCBsSuVV-6TdfTjAt4-46">
          <mxGeometry x="0.4901" y="4" relative="1" as="geometry">
            <mxPoint x="19" y="-11" as="offset" />
          </mxGeometry>
        </mxCell>
        <mxCell id="B2ZCBsSuVV-6TdfTjAt4-47" value="" style="endArrow=classic;html=1;rounded=0;exitX=-0.015;exitY=-0.115;exitDx=0;exitDy=0;exitPerimeter=0;entryX=1.027;entryY=-0.024;entryDx=0;entryDy=0;entryPerimeter=0;" edge="1" parent="WIyWlLk6GJQsqaUBKTNV-1" source="B2ZCBsSuVV-6TdfTjAt4-5">
          <mxGeometry width="50" height="50" relative="1" as="geometry">
            <mxPoint x="1190" y="430" as="sourcePoint" />
            <mxPoint x="1354.3200000000002" y="284.328" as="targetPoint" />
          </mxGeometry>
        </mxCell>
        <mxCell id="B2ZCBsSuVV-6TdfTjAt4-48" value="N" style="edgeLabel;html=1;align=center;verticalAlign=middle;resizable=0;points=[];" connectable="0" vertex="1" parent="B2ZCBsSuVV-6TdfTjAt4-47">
          <mxGeometry x="0.387" y="-4" relative="1" as="geometry">
            <mxPoint x="-19" y="-11" as="offset" />
          </mxGeometry>
        </mxCell>
        <mxCell id="B2ZCBsSuVV-6TdfTjAt4-51" value="1" style="edgeLabel;html=1;align=center;verticalAlign=middle;resizable=0;points=[];" connectable="0" vertex="1" parent="B2ZCBsSuVV-6TdfTjAt4-47">
          <mxGeometry x="-0.7034" y="-2" relative="1" as="geometry">
            <mxPoint x="4" y="-11" as="offset" />
          </mxGeometry>
        </mxCell>
        <mxCell id="B2ZCBsSuVV-6TdfTjAt4-52" value="" style="endArrow=classic;html=1;rounded=0;exitX=0.5;exitY=0;exitDx=0;exitDy=0;" edge="1" parent="WIyWlLk6GJQsqaUBKTNV-1" source="w5h2cY6r9PjAPWTdhulY-18">
          <mxGeometry width="50" height="50" relative="1" as="geometry">
            <mxPoint x="1190" y="430" as="sourcePoint" />
            <mxPoint x="1595" y="340" as="targetPoint" />
          </mxGeometry>
        </mxCell>
        <mxCell id="B2ZCBsSuVV-6TdfTjAt4-53" value="1" style="edgeLabel;html=1;align=center;verticalAlign=middle;resizable=0;points=[];" connectable="0" vertex="1" parent="B2ZCBsSuVV-6TdfTjAt4-52">
          <mxGeometry x="-0.7491" y="-3" relative="1" as="geometry">
            <mxPoint x="7" as="offset" />
          </mxGeometry>
        </mxCell>
        <mxCell id="B2ZCBsSuVV-6TdfTjAt4-54" value="N" style="edgeLabel;html=1;align=center;verticalAlign=middle;resizable=0;points=[];" connectable="0" vertex="1" parent="B2ZCBsSuVV-6TdfTjAt4-52">
          <mxGeometry x="0.4806" y="1" relative="1" as="geometry">
            <mxPoint x="9" y="-7" as="offset" />
          </mxGeometry>
        </mxCell>
      </root>
    </mxGraphModel>
  </diagram>
</mxfile>
